<mxfile host="app.diagrams.net" modified="2023-10-25T16:04:15.297Z" agent="Mozilla/5.0 (Windows NT 10.0; Win64; x64) AppleWebKit/537.36 (KHTML, like Gecko) Chrome/118.0.0.0 Safari/537.36 Edg/118.0.2088.61" etag="0spjHM-Hj6INbBsMFs-W" version="22.0.8" type="device">
  <diagram name="Page-1" id="lVLWoPq1EGlYc1PeNUr_">
    <mxGraphModel dx="1737" dy="948" grid="1" gridSize="10" guides="1" tooltips="1" connect="1" arrows="1" fold="1" page="1" pageScale="1" pageWidth="850" pageHeight="1100" math="0" shadow="0">
      <root>
        <mxCell id="0" />
        <mxCell id="1" parent="0" />
        <mxCell id="Yn8hxPRmGhIu5-ZQv9ZZ-1" value="" style="rounded=1;whiteSpace=wrap;html=1;fillColor=#001DBC;" vertex="1" parent="1">
          <mxGeometry x="80" y="30" width="720" height="810" as="geometry" />
        </mxCell>
      </root>
    </mxGraphModel>
  </diagram>
</mxfile>
